<svg xmlns="http://www.w3.org/2000/svg" viewBox="0 0 77.02 73.9">
  <defs>
    <style>
      .cls-1 {
        fill: #ff7e3c;
      }
    </style>
  </defs>
  <title>Asset 1</title>
  <g id="Layer_2" data-name="Layer 2">
    <g id="Layer_1-2" data-name="Layer 1">
      <g id="Layer_1-3" data-name="Layer 1">
        <g>
          <path class="cls-1" d="M0,28s7.43-6.09,14.27,3.57c0,0-7.43,4.76-14.27-3.57"/>
          <path class="cls-1" d="M39.55,21C40.44,17.1,45.35.45,76.73,0c0,0-3,12.79-21.57,19-.89-.15-1.63-.15-2.23-.29A42.06,42.06,0,0,0,65.28,9.66c-5.36,4.17-19,9.37-21.42,9.67-.14,0-.14,0-.29.15C42.23,19.92,40.89,20.52,39.55,21Z"/>
          <path class="cls-1" d="M50.7,20.37c-14.42,0-26.31,12-26.31,26.77a26.32,26.32,0,1,0,52.63,0C76.87,32.41,65.28,20.37,50.7,20.37ZM37.77,28.55A21,21,0,0,0,36,30.48c-.29.3-.44.6-.89,1a13.39,13.39,0,0,0-.89,1.19,4.44,4.44,0,0,0-.6,1.19L33,35.09l-.6,1.19c-.14.3-.29.89-.44,1.34-.3.89-.6,1.63-1,2.68a4.26,4.26,0,0,0-.3,1.33c-.15.45-.15.9-.3,1.34a4.09,4.09,0,0,0-.15,1.34c0,.45-.14,1-.14,1.34l-.15,1-.15-1c0-.45-.15-1-.15-1.49a5.07,5.07,0,0,0-.15-1.49V41.19a5,5,0,0,1,.15-1.49c.15-1,.3-1.93.45-2.82a11.1,11.1,0,0,1,.44-1.34c.15-.45.45-.89.6-1.34A3.42,3.42,0,0,1,32,33c.3-.3.59-.89,1-1.19.59-.59,1.49-1.34,2.08-1.93a14.34,14.34,0,0,0,2.23-1.64c.89-.44,1.64-1,2.53-1.49A22.08,22.08,0,0,0,37.77,28.55Z"/>
          <path class="cls-1" d="M22.75,47.14a26.64,26.64,0,0,1,4.16-14.58,20.3,20.3,0,0,0-5.2-.89A18,18,0,0,0,3.87,50,18,18,0,0,0,21.71,68.25a19.22,19.22,0,0,0,8.47-2.08A27,27,0,0,1,22.75,47.14ZM12.19,37.77c-.44.44-.89,1-1.34,1.48a18.44,18.44,0,0,0-1.19,1.64,9.32,9.32,0,0,1-1,1.64,3.34,3.34,0,0,0-.44.74,2.09,2.09,0,0,0-.3.89A7.82,7.82,0,0,0,7.29,46,7.37,7.37,0,0,0,7,47.73a2.88,2.88,0,0,1-.15,1V51l-.15-1.19a5.13,5.13,0,0,1-.15-.89,2.85,2.85,0,0,0-.15-1c-.14-.3,0-.6,0-1v-1a11.45,11.45,0,0,1,.3-2.08c.15-.15.15-.6.3-.9a5.9,5.9,0,0,0,.44-1,16.87,16.87,0,0,1,1.19-1.63l1.49-1.49a11.28,11.28,0,0,1,1.64-1.19,5.62,5.62,0,0,0,1.63-1.19C12.94,36.88,12.49,37.32,12.19,37.77Z"/>
        </g>
      </g>
    </g>
  </g>
</svg>
